# MagicaVoxel @ ephtracy

# material
mtllib -new(000).mtl
usemtl palette

# normals
vn -1 0 0
vn 1 0 0
vn 0 0 1
vn 0 0 -1
vn 0 -1 0
vn 0 1 0

# texcoords
vt 0.0566406 0.5
vt 0.427734 0.5
vt 0.728516 0.5
vt 0.751953 0.5
vt 0.755859 0.5
vt 0.912109 0.5
vt 0.919922 0.5
vt 0.958984 0.5
vt 0.962891 0.5
vt 0.966797 0.5
vt 0.990234 0.5

# verts and faces
v -13.5 1 4.5
v -13.5 1 -4.5
v -13.5 2 3.5
v -13.5 2 -3.5
v -13.5 3 4.5
v -13.5 3 3.5
v -13.5 3 -3.5
v -13.5 3 -4.5
f -6/7/1 -7/7/1 -8/7/1
f -5/7/1 -7/7/1 -6/7/1
f -4/7/1 -6/7/1 -8/7/1
f -3/7/1 -6/7/1 -4/7/1
f -2/7/1 -7/7/1 -5/7/1
f -1/7/1 -7/7/1 -2/7/1
v -12.5 2 3.5
v -12.5 2 -3.5
v -12.5 3 4.5
v -12.5 3 3.5
v -12.5 3 1.5
v -12.5 3 -1.5
v -12.5 3 -3.5
v -12.5 3 -4.5
v -12.5 4 4.5
v -12.5 4 3.5
v -12.5 4 1.5
v -12.5 4 -1.5
v -12.5 4 -3.5
v -12.5 4 -4.5
v -12.5 5 3.5
v -12.5 5 -3.5
f -13/2/1 -15/2/1 -16/2/1
f -12/2/1 -15/2/1 -13/2/1
f -11/2/1 -15/2/1 -12/2/1
f -10/2/1 -15/2/1 -11/2/1
f -8/2/1 -13/2/1 -14/2/1
f -7/6/1 -12/6/1 -13/6/1
f -7/2/1 -13/2/1 -8/2/1
f -6/2/1 -11/2/1 -12/2/1
f -6/6/1 -12/6/1 -7/6/1
f -5/6/1 -10/6/1 -11/6/1
f -5/2/1 -11/2/1 -6/2/1
f -4/2/1 -9/2/1 -10/2/1
f -4/6/1 -10/6/1 -5/6/1
f -3/2/1 -9/2/1 -4/2/1
f -2/2/1 -5/2/1 -6/2/1
f -2/2/1 -4/2/1 -5/2/1
f -2/2/1 -6/2/1 -7/2/1
f -1/2/1 -4/2/1 -2/2/1
v -11.5 4 4.5
v -11.5 4 3.5
v -11.5 4 -3.5
v -11.5 4 -4.5
v -11.5 5 4.5
v -11.5 5 3.5
v -11.5 5 -3.5
v -11.5 5 -4.5
f -4/2/1 -7/2/1 -8/2/1
f -3/2/1 -7/2/1 -4/2/1
f -2/2/1 -5/2/1 -6/2/1
f -1/2/1 -5/2/1 -2/2/1
v -10.5 5 3.5
v -10.5 5 -3.5
v -10.5 6 3.5
v -10.5 6 -3.5
f -2/2/1 -3/2/1 -4/2/1
f -1/2/1 -3/2/1 -2/2/1
v -9.5 1 5.5
v -9.5 1 4.5
v -9.5 1 -4.5
v -9.5 1 -5.5
v -9.5 4 5.5
v -9.5 4 4.5
v -9.5 4 -4.5
v -9.5 4 -5.5
f -4/2/1 -7/2/1 -8/2/1
f -3/2/1 -7/2/1 -4/2/1
f -2/2/1 -5/2/1 -6/2/1
f -1/2/1 -5/2/1 -2/2/1
v -8.5 0 4.5
v -8.5 0 3.5
v -8.5 0 -3.5
v -8.5 0 -4.5
v -8.5 1 4.5
v -8.5 1 3.5
v -8.5 1 -3.5
v -8.5 1 -4.5
f -4/11/1 -7/11/1 -8/11/1
f -3/11/1 -7/11/1 -4/11/1
f -2/11/1 -5/11/1 -6/11/1
f -1/11/1 -5/11/1 -2/11/1
v -5.5 1 5.5
v -5.5 1 4.5
v -5.5 1 3.5
v -5.5 1 -3.5
v -5.5 1 -4.5
v -5.5 1 -5.5
v -5.5 3 5.5
v -5.5 3 4.5
v -5.5 3 3.5
v -5.5 3 -3.5
v -5.5 3 -4.5
v -5.5 3 -5.5
v -5.5 6 3.5
v -5.5 6 -3.5
v -5.5 8 3.5
v -5.5 8 -3.5
f -10/2/1 -15/2/1 -16/2/1
f -9/2/1 -15/2/1 -10/2/1
f -8/2/1 -13/2/1 -14/2/1
f -7/2/1 -13/2/1 -8/2/1
f -6/2/1 -11/2/1 -12/2/1
f -5/2/1 -11/2/1 -6/2/1
f -2/3/1 -3/3/1 -4/3/1
f -1/3/1 -3/3/1 -2/3/1
v -4.5 5 4.5
v -4.5 5 3.5
v -4.5 5 -3.5
v -4.5 5 -4.5
v -4.5 6 4.5
v -4.5 6 3.5
v -4.5 6 -3.5
v -4.5 6 -4.5
v -4.5 8 4.5
v -4.5 8 3.5
v -4.5 8 -3.5
v -4.5 8 -4.5
v -4.5 9 4.5
v -4.5 9 -4.5
f -10/2/1 -13/2/1 -14/2/1
f -9/2/1 -13/2/1 -10/2/1
f -8/2/1 -11/2/1 -12/2/1
f -7/2/1 -11/2/1 -8/2/1
f -6/3/1 -9/3/1 -10/3/1
f -5/3/1 -9/3/1 -6/3/1
f -4/3/1 -7/3/1 -8/3/1
f -3/3/1 -7/3/1 -4/3/1
f -2/2/1 -5/2/1 -6/2/1
f -2/2/1 -4/2/1 -5/2/1
f -2/2/1 -3/2/1 -4/2/1
f -1/2/1 -3/2/1 -2/2/1
v 6.5 2 5.5
v 6.5 2 4.5
v 6.5 2 -4.5
v 6.5 2 -5.5
v 6.5 4 5.5
v 6.5 4 4.5
v 6.5 4 -4.5
v 6.5 4 -5.5
f -4/2/1 -7/2/1 -8/2/1
f -3/2/1 -7/2/1 -4/2/1
f -2/2/1 -5/2/1 -6/2/1
f -1/2/1 -5/2/1 -2/2/1
v 7.5 0 4.5
v 7.5 0 3.5
v 7.5 0 -3.5
v 7.5 0 -4.5
v 7.5 1 4.5
v 7.5 1 3.5
v 7.5 1 -3.5
v 7.5 1 -4.5
f -4/11/1 -7/11/1 -8/11/1
f -3/11/1 -7/11/1 -4/11/1
f -2/11/1 -5/11/1 -6/11/1
f -1/11/1 -5/11/1 -2/11/1
v 10.5 1 5.5
v 10.5 1 4.5
v 10.5 1 3.5
v 10.5 1 -3.5
v 10.5 1 -4.5
v 10.5 1 -5.5
v 10.5 3 5.5
v 10.5 3 4.5
v 10.5 3 3.5
v 10.5 3 -3.5
v 10.5 3 -4.5
v 10.5 3 -5.5
f -6/2/1 -11/2/1 -12/2/1
f -5/2/1 -11/2/1 -6/2/1
f -4/2/1 -9/2/1 -10/2/1
f -3/2/1 -9/2/1 -4/2/1
f -2/2/1 -7/2/1 -8/2/1
f -1/2/1 -7/2/1 -2/2/1
v -8.5 1 5.5
v -8.5 1 4.5
v -8.5 1 3.5
v -8.5 1 -3.5
v -8.5 1 -4.5
v -8.5 1 -5.5
v -8.5 3 5.5
v -8.5 3 4.5
v -8.5 3 3.5
v -8.5 3 -3.5
v -8.5 3 -4.5
v -8.5 3 -5.5
f -12/2/2 -11/2/2 -6/2/2
f -6/2/2 -11/2/2 -5/2/2
f -10/2/2 -9/2/2 -4/2/2
f -4/2/2 -9/2/2 -3/2/2
f -8/2/2 -7/2/2 -2/2/2
f -2/2/2 -7/2/2 -1/2/2
v -5.5 0 4.5
v -5.5 0 3.5
v -5.5 0 -3.5
v -5.5 0 -4.5
v -5.5 1 4.5
v -5.5 1 3.5
v -5.5 1 -3.5
v -5.5 1 -4.5
f -8/11/2 -7/11/2 -4/11/2
f -4/11/2 -7/11/2 -3/11/2
f -6/11/2 -5/11/2 -2/11/2
f -2/11/2 -5/11/2 -1/11/2
v -4.5 2 5.5
v -4.5 2 4.5
v -4.5 2 -4.5
v -4.5 2 -5.5
v -4.5 4 5.5
v -4.5 4 4.5
v -4.5 4 -4.5
v -4.5 4 -5.5
f -8/2/2 -7/2/2 -4/2/2
f -4/2/2 -7/2/2 -3/2/2
f -6/2/2 -5/2/2 -2/2/2
f -2/2/2 -5/2/2 -1/2/2
v 7.5 1 5.5
v 7.5 1 4.5
v 7.5 1 3.5
v 7.5 1 -3.5
v 7.5 1 -4.5
v 7.5 1 -5.5
v 7.5 3 5.5
v 7.5 3 4.5
v 7.5 3 3.5
v 7.5 3 -3.5
v 7.5 3 -4.5
v 7.5 3 -5.5
f -12/2/2 -11/2/2 -6/2/2
f -6/2/2 -11/2/2 -5/2/2
f -10/2/2 -9/2/2 -4/2/2
f -4/2/2 -9/2/2 -3/2/2
f -8/2/2 -7/2/2 -2/2/2
f -2/2/2 -7/2/2 -1/2/2
v 8.5 8 4.5
v 8.5 8 3.5
v 8.5 8 -3.5
v 8.5 8 -4.5
v 8.5 9 4.5
v 8.5 9 3.5
v 8.5 9 -3.5
v 8.5 9 -4.5
f -8/2/2 -7/2/2 -4/2/2
f -4/2/2 -7/2/2 -3/2/2
f -6/2/2 -5/2/2 -2/2/2
f -2/2/2 -5/2/2 -1/2/2
v 9.5 5 4.5
v 9.5 5 3.5
v 9.5 5 -3.5
v 9.5 5 -4.5
v 9.5 6 3.5
v 9.5 6 -3.5
v 9.5 8 4.5
v 9.5 8 3.5
v 9.5 8 -3.5
v 9.5 8 -4.5
v 9.5 9 3.5
v 9.5 9 -3.5
f -12/2/2 -11/2/2 -8/2/2
f -10/2/2 -9/2/2 -7/2/2
f -12/2/2 -8/2/2 -6/2/2
f -8/4/2 -7/4/2 -5/4/2
f -6/2/2 -8/2/2 -5/2/2
f -7/2/2 -9/2/2 -4/2/2
f -5/4/2 -7/4/2 -4/4/2
f -4/2/2 -9/2/2 -3/2/2
f -5/2/2 -4/2/2 -2/2/2
f -2/2/2 -4/2/2 -1/2/2
v 10.5 0 4.5
v 10.5 0 3.5
v 10.5 0 -3.5
v 10.5 0 -4.5
v 10.5 1 4.5
v 10.5 1 3.5
v 10.5 1 -3.5
v 10.5 1 -4.5
f -8/11/2 -7/11/2 -4/11/2
f -4/11/2 -7/11/2 -3/11/2
f -6/11/2 -5/11/2 -2/11/2
f -2/11/2 -5/11/2 -1/11/2
v 11.5 1 5.5
v 11.5 1 4.5
v 11.5 1 -4.5
v 11.5 1 -5.5
v 11.5 4 5.5
v 11.5 4 4.5
v 11.5 4 -4.5
v 11.5 4 -5.5
v 11.5 5 3.5
v 11.5 5 -3.5
v 11.5 6 3.5
v 11.5 6 -3.5
f -12/2/2 -11/2/2 -8/2/2
f -8/2/2 -11/2/2 -7/2/2
f -10/2/2 -9/2/2 -6/2/2
f -6/2/2 -9/2/2 -5/2/2
f -4/2/2 -3/2/2 -2/2/2
f -2/2/2 -3/2/2 -1/2/2
v 12.5 1 4.5
v 12.5 1 -2.5
v 12.5 1 -3.5
v 12.5 1 -4.5
v 12.5 2 -2.5
v 12.5 2 -3.5
v 12.5 3 3.5
v 12.5 3 1.5
v 12.5 3 -1.5
v 12.5 3 -3.5
v 12.5 4 3.5
v 12.5 4 1.5
v 12.5 4 -1.5
v 12.5 4 -3.5
v 12.5 5 4.5
v 12.5 5 -4.5
f -16/2/2 -15/2/2 -12/2/2
f -14/2/2 -13/2/2 -11/2/2
f -16/2/2 -12/2/2 -10/2/2
f -12/2/2 -11/2/2 -10/2/2
f -10/2/2 -11/2/2 -9/2/2
f -9/2/2 -11/2/2 -8/2/2
f -11/2/2 -13/2/2 -7/2/2
f -8/2/2 -11/2/2 -7/2/2
f -16/2/2 -10/2/2 -6/2/2
f -10/1/2 -9/1/2 -6/1/2
f -9/2/2 -8/2/2 -5/2/2
f -6/1/2 -9/1/2 -5/1/2
f -8/1/2 -7/1/2 -4/1/2
f -5/2/2 -8/2/2 -4/2/2
f -7/2/2 -13/2/2 -3/2/2
f -4/1/2 -7/1/2 -3/1/2
f -16/2/2 -6/2/2 -2/2/2
f -5/2/2 -4/2/2 -2/2/2
f -4/2/2 -3/2/2 -2/2/2
f -6/2/2 -5/2/2 -2/2/2
f -3/2/2 -13/2/2 -1/2/2
f -2/2/2 -3/2/2 -1/2/2
v 13.5 1 -2.5
v 13.5 1 -3.5
v 13.5 2 -2.5
v 13.5 2 -3.5
f -4/10/2 -3/10/2 -2/10/2
f -2/10/2 -3/10/2 -1/10/2
v -9.5 1 5.5
v -9.5 4 5.5
v -8.5 1 5.5
v -8.5 3 5.5
v -5.5 1 5.5
v -5.5 3 5.5
v -4.5 2 5.5
v -4.5 4 5.5
v 6.5 2 5.5
v 6.5 4 5.5
v 7.5 1 5.5
v 7.5 3 5.5
v 10.5 1 5.5
v 10.5 3 5.5
v 11.5 1 5.5
v 11.5 4 5.5
f -14/2/3 -15/2/3 -16/2/3
f -13/2/3 -15/2/3 -14/2/3
f -11/2/3 -15/2/3 -13/2/3
f -10/2/3 -11/2/3 -12/2/3
f -9/2/3 -15/2/3 -11/2/3
f -9/2/3 -11/2/3 -10/2/3
f -8/2/3 -10/2/3 -12/2/3
f -6/2/3 -8/2/3 -12/2/3
f -6/2/3 -7/2/3 -8/2/3
f -5/2/3 -7/2/3 -6/2/3
f -3/2/3 -7/2/3 -5/2/3
f -2/2/3 -3/2/3 -4/2/3
f -1/2/3 -7/2/3 -3/2/3
f -1/2/3 -3/2/3 -2/2/3
v -13.5 1 4.5
v -13.5 3 4.5
v -12.5 2 4.5
v -12.5 3 4.5
v -12.5 4 4.5
v -11.5 1 4.5
v -11.5 2 4.5
v -11.5 4 4.5
v -11.5 5 4.5
v -9.5 1 4.5
v -9.5 4 4.5
v -8.5 0 4.5
v -8.5 1 4.5
v -8.5 3 4.5
v -7.5 1 4.5
v -7.5 2 4.5
v -6.5 1 4.5
v -6.5 2 4.5
v -5.5 0 4.5
v -5.5 1 4.5
v -5.5 3 4.5
v -4.5 2 4.5
v -4.5 4 4.5
v -4.5 5 4.5
v -4.5 6 4.5
v -4.5 8 4.5
v -4.5 9 4.5
v -3.5 6 4.5
v -3.5 8 4.5
v -2.5 5 4.5
v -2.5 8 4.5
v 1.5 5 4.5
v 1.5 8 4.5
v 2.5 5 4.5
v 2.5 8 4.5
v 6.5 2 4.5
v 6.5 4 4.5
v 6.5 5 4.5
v 6.5 8 4.5
v 7.5 0 4.5
v 7.5 1 4.5
v 7.5 3 4.5
v 8.5 1 4.5
v 8.5 2 4.5
v 8.5 8 4.5
v 8.5 9 4.5
v 9.5 1 4.5
v 9.5 2 4.5
v 9.5 5 4.5
v 9.5 8 4.5
v 10.5 0 4.5
v 10.5 1 4.5
v 10.5 3 4.5
v 11.5 1 4.5
v 11.5 4 4.5
v 12.5 1 4.5
v 12.5 5 4.5
f -55/7/3 -56/7/3 -57/7/3
f -54/7/3 -56/7/3 -55/7/3
f -52/7/3 -55/7/3 -57/7/3
f -51/2/3 -53/2/3 -54/2/3
f -51/7/3 -55/7/3 -52/7/3
f -51/2/3 -54/2/3 -55/2/3
f -50/2/3 -53/2/3 -51/2/3
f -48/2/3 -51/2/3 -52/2/3
f -48/2/3 -49/2/3 -50/2/3
f -48/2/3 -50/2/3 -51/2/3
f -47/2/3 -49/2/3 -48/2/3
f -43/11/3 -45/11/3 -46/11/3
f -43/11/3 -44/11/3 -45/11/3
f -42/11/3 -44/11/3 -43/11/3
f -41/11/3 -43/11/3 -46/11/3
f -41/10/3 -42/10/3 -43/10/3
f -40/11/3 -44/11/3 -42/11/3
f -40/10/3 -42/10/3 -41/10/3
f -39/11/3 -41/11/3 -46/11/3
f -39/11/3 -40/11/3 -41/11/3
f -38/11/3 -40/11/3 -39/11/3
f -37/11/3 -44/11/3 -40/11/3
f -37/11/3 -40/11/3 -38/11/3
f -35/2/3 -49/2/3 -47/2/3
f -34/2/3 -49/2/3 -35/2/3
f -30/2/3 -35/2/3 -36/2/3
f -30/2/3 -34/2/3 -35/2/3
f -30/3/3 -32/3/3 -33/3/3
f -30/2/3 -33/2/3 -34/2/3
f -29/2/3 -31/2/3 -32/2/3
f -29/3/3 -32/3/3 -30/3/3
f -28/2/3 -30/2/3 -36/2/3
f -28/2/3 -29/2/3 -30/2/3
f -27/2/3 -31/2/3 -29/2/3
f -27/2/3 -29/2/3 -28/2/3
f -26/2/3 -28/2/3 -36/2/3
f -26/4/3 -27/4/3 -28/4/3
f -25/2/3 -31/2/3 -27/2/3
f -25/4/3 -27/4/3 -26/4/3
f -24/2/3 -26/2/3 -36/2/3
f -24/2/3 -25/2/3 -26/2/3
f -23/2/3 -31/2/3 -25/2/3
f -23/2/3 -25/2/3 -24/2/3
f -22/2/3 -24/2/3 -36/2/3
f -21/2/3 -24/2/3 -22/2/3
f -20/4/3 -23/4/3 -24/4/3
f -20/2/3 -24/2/3 -21/2/3
f -19/2/3 -31/2/3 -23/2/3
f -19/4/3 -23/4/3 -20/4/3
f -15/11/3 -17/11/3 -18/11/3
f -15/11/3 -16/11/3 -17/11/3
f -14/11/3 -16/11/3 -15/11/3
f -13/2/3 -20/2/3 -21/2/3
f -13/2/3 -31/2/3 -19/2/3
f -13/2/3 -19/2/3 -20/2/3
f -12/2/3 -31/2/3 -13/2/3
f -11/10/3 -14/10/3 -15/10/3
f -11/11/3 -15/11/3 -18/11/3
f -10/11/3 -16/11/3 -14/11/3
f -10/10/3 -14/10/3 -11/10/3
f -9/2/3 -13/2/3 -21/2/3
f -8/2/3 -13/2/3 -9/2/3
f -7/11/3 -11/11/3 -18/11/3
f -7/11/3 -10/11/3 -11/11/3
f -6/11/3 -10/11/3 -7/11/3
f -5/11/3 -16/11/3 -10/11/3
f -5/11/3 -10/11/3 -6/11/3
f -3/2/3 -9/2/3 -21/2/3
f -2/2/3 -3/2/3 -4/2/3
f -1/2/3 -9/2/3 -3/2/3
f -1/2/3 -3/2/3 -2/2/3
v -12.5 4 3.5
v -12.5 5 3.5
v -11.5 4 3.5
v -11.5 5 3.5
v -10.5 5 3.5
v -10.5 6 3.5
v -5.5 6 3.5
v -5.5 8 3.5
v -4.5 5 3.5
v -4.5 6 3.5
v -4.5 8 3.5
v 8.5 8 3.5
v 8.5 9 3.5
v 9.5 5 3.5
v 9.5 6 3.5
v 9.5 8 3.5
v 9.5 9 3.5
v 11.5 5 3.5
v 11.5 6 3.5
f -17/2/3 -18/2/3 -19/2/3
f -16/2/3 -18/2/3 -17/2/3
f -13/2/3 -14/2/3 -15/2/3
f -11/2/3 -13/2/3 -15/2/3
f -10/3/3 -12/3/3 -13/3/3
f -10/2/3 -13/2/3 -11/2/3
f -9/3/3 -12/3/3 -10/3/3
f -4/2/3 -7/2/3 -8/2/3
f -3/2/3 -7/2/3 -4/2/3
f -2/2/3 -5/2/3 -6/2/3
f -1/2/3 -5/2/3 -2/2/3
v 12.5 1 -2.5
v 12.5 2 -2.5
v 13.5 1 -2.5
v 13.5 2 -2.5
f -2/10/3 -3/10/3 -4/10/3
f -1/10/3 -3/10/3 -2/10/3
v -13.5 2 -3.5
v -13.5 3 -3.5
v -12.5 2 -3.5
v -12.5 3 -3.5
v -8.5 0 -3.5
v -8.5 1 -3.5
v -8.5 3 -3.5
v -7.5 1 -3.5
v -7.5 2 -3.5
v -6.5 1 -3.5
v -6.5 2 -3.5
v -5.5 0 -3.5
v -5.5 1 -3.5
v -5.5 3 -3.5
v 7.5 0 -3.5
v 7.5 1 -3.5
v 7.5 3 -3.5
v 8.5 1 -3.5
v 8.5 2 -3.5
v 9.5 1 -3.5
v 9.5 2 -3.5
v 10.5 0 -3.5
v 10.5 1 -3.5
v 10.5 3 -3.5
f -22/7/3 -23/7/3 -24/7/3
f -21/7/3 -23/7/3 -22/7/3
f -17/11/3 -19/11/3 -20/11/3
f -17/11/3 -18/11/3 -19/11/3
f -16/11/3 -18/11/3 -17/11/3
f -15/11/3 -17/11/3 -20/11/3
f -15/8/3 -16/8/3 -17/8/3
f -14/11/3 -18/11/3 -16/11/3
f -14/8/3 -16/8/3 -15/8/3
f -13/11/3 -15/11/3 -20/11/3
f -13/11/3 -14/11/3 -15/11/3
f -12/11/3 -14/11/3 -13/11/3
f -11/11/3 -18/11/3 -14/11/3
f -11/11/3 -14/11/3 -12/11/3
f -7/11/3 -9/11/3 -10/11/3
f -7/11/3 -8/11/3 -9/11/3
f -6/11/3 -8/11/3 -7/11/3
f -5/11/3 -7/11/3 -10/11/3
f -5/9/3 -6/9/3 -7/9/3
f -4/11/3 -8/11/3 -6/11/3
f -4/9/3 -6/9/3 -5/9/3
f -3/11/3 -5/11/3 -10/11/3
f -3/11/3 -4/11/3 -5/11/3
f -2/11/3 -4/11/3 -3/11/3
f -1/11/3 -8/11/3 -4/11/3
f -1/11/3 -4/11/3 -2/11/3
v -13.5 2 3.5
v -13.5 3 3.5
v -12.5 2 3.5
v -12.5 3 3.5
v -8.5 0 3.5
v -8.5 1 3.5
v -8.5 3 3.5
v -7.5 1 3.5
v -7.5 2 3.5
v -6.5 1 3.5
v -6.5 2 3.5
v -5.5 0 3.5
v -5.5 1 3.5
v -5.5 3 3.5
v 7.5 0 3.5
v 7.5 1 3.5
v 7.5 3 3.5
v 8.5 1 3.5
v 8.5 2 3.5
v 9.5 1 3.5
v 9.5 2 3.5
v 10.5 0 3.5
v 10.5 1 3.5
v 10.5 3 3.5
f -24/7/4 -23/7/4 -22/7/4
f -22/7/4 -23/7/4 -21/7/4
f -20/11/4 -19/11/4 -17/11/4
f -19/11/4 -18/11/4 -17/11/4
f -17/11/4 -18/11/4 -16/11/4
f -20/11/4 -17/11/4 -15/11/4
f -17/10/4 -16/10/4 -15/10/4
f -16/11/4 -18/11/4 -14/11/4
f -15/10/4 -16/10/4 -14/10/4
f -20/11/4 -15/11/4 -13/11/4
f -15/11/4 -14/11/4 -13/11/4
f -13/11/4 -14/11/4 -12/11/4
f -14/11/4 -18/11/4 -11/11/4
f -12/11/4 -14/11/4 -11/11/4
f -10/11/4 -9/11/4 -7/11/4
f -9/11/4 -8/11/4 -7/11/4
f -7/11/4 -8/11/4 -6/11/4
f -10/11/4 -7/11/4 -5/11/4
f -7/10/4 -6/10/4 -5/10/4
f -6/11/4 -8/11/4 -4/11/4
f -5/10/4 -6/10/4 -4/10/4
f -10/11/4 -5/11/4 -3/11/4
f -5/11/4 -4/11/4 -3/11/4
f -3/11/4 -4/11/4 -2/11/4
f -4/11/4 -8/11/4 -1/11/4
f -2/11/4 -4/11/4 -1/11/4
v -12.5 4 -3.5
v -12.5 5 -3.5
v -11.5 4 -3.5
v -11.5 5 -3.5
v -10.5 5 -3.5
v -10.5 6 -3.5
v -5.5 6 -3.5
v -5.5 8 -3.5
v -4.5 5 -3.5
v -4.5 6 -3.5
v -4.5 8 -3.5
v 8.5 8 -3.5
v 8.5 9 -3.5
v 9.5 5 -3.5
v 9.5 6 -3.5
v 9.5 8 -3.5
v 9.5 9 -3.5
v 11.5 5 -3.5
v 11.5 6 -3.5
v 12.5 1 -3.5
v 12.5 2 -3.5
v 13.5 1 -3.5
v 13.5 2 -3.5
f -23/2/4 -22/2/4 -21/2/4
f -21/2/4 -22/2/4 -20/2/4
f -19/2/4 -18/2/4 -17/2/4
f -19/2/4 -17/2/4 -15/2/4
f -17/3/4 -16/3/4 -14/3/4
f -15/2/4 -17/2/4 -14/2/4
f -14/3/4 -16/3/4 -13/3/4
f -12/2/4 -11/2/4 -8/2/4
f -8/2/4 -11/2/4 -7/2/4
f -10/2/4 -9/2/4 -6/2/4
f -6/2/4 -9/2/4 -5/2/4
f -4/10/4 -3/10/4 -2/10/4
f -2/10/4 -3/10/4 -1/10/4
v -13.5 1 -4.5
v -13.5 3 -4.5
v -12.5 2 -4.5
v -12.5 3 -4.5
v -12.5 4 -4.5
v -11.5 1 -4.5
v -11.5 2 -4.5
v -11.5 4 -4.5
v -11.5 5 -4.5
v -9.5 1 -4.5
v -9.5 4 -4.5
v -8.5 0 -4.5
v -8.5 1 -4.5
v -8.5 3 -4.5
v -7.5 1 -4.5
v -7.5 2 -4.5
v -6.5 1 -4.5
v -6.5 2 -4.5
v -5.5 0 -4.5
v -5.5 1 -4.5
v -5.5 3 -4.5
v -4.5 2 -4.5
v -4.5 4 -4.5
v -4.5 5 -4.5
v -4.5 6 -4.5
v -4.5 8 -4.5
v -4.5 9 -4.5
v -3.5 6 -4.5
v -3.5 8 -4.5
v -2.5 5 -4.5
v -2.5 8 -4.5
v 1.5 5 -4.5
v 1.5 8 -4.5
v 2.5 5 -4.5
v 2.5 8 -4.5
v 6.5 2 -4.5
v 6.5 4 -4.5
v 6.5 5 -4.5
v 6.5 8 -4.5
v 7.5 0 -4.5
v 7.5 1 -4.5
v 7.5 3 -4.5
v 8.5 1 -4.5
v 8.5 2 -4.5
v 8.5 8 -4.5
v 8.5 9 -4.5
v 9.5 1 -4.5
v 9.5 2 -4.5
v 9.5 5 -4.5
v 9.5 8 -4.5
v 10.5 0 -4.5
v 10.5 1 -4.5
v 10.5 3 -4.5
v 11.5 1 -4.5
v 11.5 4 -4.5
v 12.5 1 -4.5
v 12.5 5 -4.5
f -57/7/4 -56/7/4 -55/7/4
f -55/7/4 -56/7/4 -54/7/4
f -57/7/4 -55/7/4 -52/7/4
f -54/2/4 -53/2/4 -51/2/4
f -52/7/4 -55/7/4 -51/7/4
f -55/2/4 -54/2/4 -51/2/4
f -51/2/4 -53/2/4 -50/2/4
f -52/2/4 -51/2/4 -48/2/4
f -50/2/4 -49/2/4 -48/2/4
f -51/2/4 -50/2/4 -48/2/4
f -48/2/4 -49/2/4 -47/2/4
f -46/11/4 -45/11/4 -43/11/4
f -45/11/4 -44/11/4 -43/11/4
f -43/11/4 -44/11/4 -42/11/4
f -46/11/4 -43/11/4 -41/11/4
f -43/8/4 -42/8/4 -41/8/4
f -42/11/4 -44/11/4 -40/11/4
f -41/8/4 -42/8/4 -40/8/4
f -46/11/4 -41/11/4 -39/11/4
f -41/11/4 -40/11/4 -39/11/4
f -39/11/4 -40/11/4 -38/11/4
f -40/11/4 -44/11/4 -37/11/4
f -38/11/4 -40/11/4 -37/11/4
f -47/2/4 -49/2/4 -35/2/4
f -35/2/4 -49/2/4 -34/2/4
f -36/2/4 -35/2/4 -30/2/4
f -35/2/4 -34/2/4 -30/2/4
f -33/3/4 -32/3/4 -30/3/4
f -34/2/4 -33/2/4 -30/2/4
f -32/2/4 -31/2/4 -29/2/4
f -30/3/4 -32/3/4 -29/3/4
f -36/2/4 -30/2/4 -28/2/4
f -30/2/4 -29/2/4 -28/2/4
f -29/2/4 -31/2/4 -27/2/4
f -28/2/4 -29/2/4 -27/2/4
f -36/2/4 -28/2/4 -26/2/4
f -28/4/4 -27/4/4 -26/4/4
f -27/2/4 -31/2/4 -25/2/4
f -26/4/4 -27/4/4 -25/4/4
f -36/2/4 -26/2/4 -24/2/4
f -26/2/4 -25/2/4 -24/2/4
f -25/2/4 -31/2/4 -23/2/4
f -24/2/4 -25/2/4 -23/2/4
f -36/2/4 -24/2/4 -22/2/4
f -22/2/4 -24/2/4 -21/2/4
f -24/4/4 -23/4/4 -20/4/4
f -21/2/4 -24/2/4 -20/2/4
f -23/2/4 -31/2/4 -19/2/4
f -20/4/4 -23/4/4 -19/4/4
f -18/11/4 -17/11/4 -15/11/4
f -17/11/4 -16/11/4 -15/11/4
f -15/11/4 -16/11/4 -14/11/4
f -21/2/4 -20/2/4 -13/2/4
f -19/2/4 -31/2/4 -13/2/4
f -20/2/4 -19/2/4 -13/2/4
f -13/2/4 -31/2/4 -12/2/4
f -15/9/4 -14/9/4 -11/9/4
f -18/11/4 -15/11/4 -11/11/4
f -14/11/4 -16/11/4 -10/11/4
f -11/9/4 -14/9/4 -10/9/4
f -21/2/4 -13/2/4 -9/2/4
f -9/2/4 -13/2/4 -8/2/4
f -18/11/4 -11/11/4 -7/11/4
f -11/11/4 -10/11/4 -7/11/4
f -7/11/4 -10/11/4 -6/11/4
f -10/11/4 -16/11/4 -5/11/4
f -6/11/4 -10/11/4 -5/11/4
f -21/2/4 -9/2/4 -3/2/4
f -4/2/4 -3/2/4 -2/2/4
f -3/2/4 -9/2/4 -1/2/4
f -2/2/4 -3/2/4 -1/2/4
v -9.5 1 -5.5
v -9.5 4 -5.5
v -8.5 1 -5.5
v -8.5 3 -5.5
v -5.5 1 -5.5
v -5.5 3 -5.5
v -4.5 2 -5.5
v -4.5 4 -5.5
v 6.5 2 -5.5
v 6.5 4 -5.5
v 7.5 1 -5.5
v 7.5 3 -5.5
v 10.5 1 -5.5
v 10.5 3 -5.5
v 11.5 1 -5.5
v 11.5 4 -5.5
f -16/2/4 -15/2/4 -14/2/4
f -14/2/4 -15/2/4 -13/2/4
f -13/2/4 -15/2/4 -11/2/4
f -12/2/4 -11/2/4 -10/2/4
f -11/2/4 -15/2/4 -9/2/4
f -10/2/4 -11/2/4 -9/2/4
f -12/2/4 -10/2/4 -8/2/4
f -12/2/4 -8/2/4 -6/2/4
f -8/2/4 -7/2/4 -6/2/4
f -6/2/4 -7/2/4 -5/2/4
f -5/2/4 -7/2/4 -3/2/4
f -4/2/4 -3/2/4 -2/2/4
f -3/2/4 -7/2/4 -1/2/4
f -2/2/4 -3/2/4 -1/2/4
v -8.5 0 4.5
v -5.5 0 4.5
v 7.5 0 4.5
v 10.5 0 4.5
v -8.5 0 3.5
v -5.5 0 3.5
v 7.5 0 3.5
v 10.5 0 3.5
v -8.5 0 -3.5
v -5.5 0 -3.5
v 7.5 0 -3.5
v 10.5 0 -3.5
v -8.5 0 -4.5
v -5.5 0 -4.5
v 7.5 0 -4.5
v 10.5 0 -4.5
f -12/11/5 -15/11/5 -16/11/5
f -11/11/5 -15/11/5 -12/11/5
f -10/11/5 -13/11/5 -14/11/5
f -9/11/5 -13/11/5 -10/11/5
f -4/11/5 -7/11/5 -8/11/5
f -3/11/5 -7/11/5 -4/11/5
f -2/11/5 -5/11/5 -6/11/5
f -1/11/5 -5/11/5 -2/11/5
v -9.5 1 5.5
v -8.5 1 5.5
v -5.5 1 5.5
v 7.5 1 5.5
v 10.5 1 5.5
v 11.5 1 5.5
v -13.5 1 4.5
v -11.5 1 4.5
v -9.5 1 4.5
v -8.5 1 4.5
v -5.5 1 4.5
v 7.5 1 4.5
v 10.5 1 4.5
v 11.5 1 4.5
v 12.5 1 4.5
v -12.5 1 3.5
v -11.5 1 3.5
v -8.5 1 3.5
v -5.5 1 3.5
v 7.5 1 3.5
v 10.5 1 3.5
v 11.5 1 -2.5
v 12.5 1 -2.5
v 13.5 1 -2.5
v -12.5 1 -3.5
v -11.5 1 -3.5
v -8.5 1 -3.5
v -5.5 1 -3.5
v 7.5 1 -3.5
v 10.5 1 -3.5
v 11.5 1 -3.5
v 12.5 1 -3.5
v 13.5 1 -3.5
v -13.5 1 -4.5
v -11.5 1 -4.5
v -9.5 1 -4.5
v -8.5 1 -4.5
v -5.5 1 -4.5
v 7.5 1 -4.5
v 10.5 1 -4.5
v 11.5 1 -4.5
v 12.5 1 -4.5
v -9.5 1 -5.5
v -8.5 1 -5.5
v -5.5 1 -5.5
v 7.5 1 -5.5
v 10.5 1 -5.5
v 11.5 1 -5.5
f -40/2/5 -47/2/5 -48/2/5
f -39/2/5 -47/2/5 -40/2/5
f -38/2/5 -45/2/5 -46/2/5
f -37/2/5 -45/2/5 -38/2/5
f -36/2/5 -43/2/5 -44/2/5
f -35/2/5 -43/2/5 -36/2/5
f -33/7/5 -41/7/5 -42/7/5
f -32/2/5 -39/2/5 -40/2/5
f -32/7/5 -41/7/5 -33/7/5
f -32/2/5 -40/2/5 -41/2/5
f -31/2/5 -39/2/5 -32/2/5
f -30/2/5 -37/2/5 -38/2/5
f -29/2/5 -37/2/5 -30/2/5
f -28/2/5 -34/2/5 -35/2/5
f -28/2/5 -35/2/5 -36/2/5
f -27/2/5 -34/2/5 -28/2/5
f -26/2/5 -34/2/5 -27/2/5
f -24/7/5 -33/7/5 -42/7/5
f -24/2/5 -31/2/5 -32/2/5
f -24/2/5 -32/2/5 -33/2/5
f -23/2/5 -31/2/5 -24/2/5
f -22/2/5 -31/2/5 -23/2/5
f -21/2/5 -29/2/5 -30/2/5
f -20/2/5 -29/2/5 -21/2/5
f -19/2/5 -27/2/5 -28/2/5
f -18/10/5 -25/10/5 -26/10/5
f -18/2/5 -27/2/5 -19/2/5
f -18/10/5 -26/10/5 -27/10/5
f -17/10/5 -25/10/5 -18/10/5
f -16/10/5 -25/10/5 -17/10/5
f -15/7/5 -24/7/5 -42/7/5
f -15/7/5 -23/7/5 -24/7/5
f -14/2/5 -22/2/5 -23/2/5
f -14/7/5 -23/7/5 -15/7/5
f -13/2/5 -22/2/5 -14/2/5
f -12/2/5 -22/2/5 -13/2/5
f -11/2/5 -20/2/5 -21/2/5
f -10/2/5 -20/2/5 -11/2/5
f -9/2/5 -17/2/5 -18/2/5
f -9/2/5 -18/2/5 -19/2/5
f -8/2/5 -17/2/5 -9/2/5
f -7/2/5 -17/2/5 -8/2/5
f -6/2/5 -12/2/5 -13/2/5
f -5/2/5 -12/2/5 -6/2/5
f -4/2/5 -10/2/5 -11/2/5
f -3/2/5 -10/2/5 -4/2/5
f -2/2/5 -8/2/5 -9/2/5
f -1/2/5 -8/2/5 -2/2/5
v -8.5 3 5.5
v -5.5 3 5.5
v 7.5 3 5.5
v 10.5 3 5.5
v -8.5 3 4.5
v -5.5 3 4.5
v 7.5 3 4.5
v 10.5 3 4.5
v -8.5 3 3.5
v -5.5 3 3.5
v 7.5 3 3.5
v 10.5 3 3.5
v -8.5 3 -3.5
v -5.5 3 -3.5
v 7.5 3 -3.5
v 10.5 3 -3.5
v -8.5 3 -4.5
v -5.5 3 -4.5
v 7.5 3 -4.5
v 10.5 3 -4.5
v -8.5 3 -5.5
v -5.5 3 -5.5
v 7.5 3 -5.5
v 10.5 3 -5.5
f -20/2/5 -23/2/5 -24/2/5
f -19/2/5 -23/2/5 -20/2/5
f -18/2/5 -21/2/5 -22/2/5
f -17/2/5 -21/2/5 -18/2/5
f -12/2/5 -15/2/5 -16/2/5
f -11/2/5 -15/2/5 -12/2/5
f -10/2/5 -13/2/5 -14/2/5
f -9/2/5 -13/2/5 -10/2/5
f -4/2/5 -7/2/5 -8/2/5
f -3/2/5 -7/2/5 -4/2/5
f -2/2/5 -5/2/5 -6/2/5
f -1/2/5 -5/2/5 -2/2/5
v -4.5 2 5.5
v 6.5 2 5.5
v -4.5 2 4.5
v 6.5 2 4.5
v -13.5 2 3.5
v -12.5 2 3.5
v 12.5 2 -2.5
v 13.5 2 -2.5
v -13.5 2 -3.5
v -12.5 2 -3.5
v 12.5 2 -3.5
v 13.5 2 -3.5
v -4.5 2 -4.5
v 6.5 2 -4.5
v -4.5 2 -5.5
v 6.5 2 -5.5
f -16/2/6 -15/2/6 -14/2/6
f -14/2/6 -15/2/6 -13/2/6
f -12/7/6 -11/7/6 -8/7/6
f -8/7/6 -11/7/6 -7/7/6
f -10/10/6 -9/10/6 -6/10/6
f -6/10/6 -9/10/6 -5/10/6
f -4/2/6 -3/2/6 -2/2/6
f -2/2/6 -3/2/6 -1/2/6
v -13.5 3 4.5
v -12.5 3 4.5
v -13.5 3 3.5
v -12.5 3 3.5
v -13.5 3 -3.5
v -12.5 3 -3.5
v -13.5 3 -4.5
v -12.5 3 -4.5
f -8/7/6 -7/7/6 -6/7/6
f -6/7/6 -7/7/6 -5/7/6
f -4/7/6 -3/7/6 -2/7/6
f -2/7/6 -3/7/6 -1/7/6
v -9.5 4 5.5
v -4.5 4 5.5
v 6.5 4 5.5
v 11.5 4 5.5
v -12.5 4 4.5
v -11.5 4 4.5
v -9.5 4 4.5
v -4.5 4 4.5
v 6.5 4 4.5
v 11.5 4 4.5
v -12.5 4 3.5
v -11.5 4 3.5
v -12.5 4 -3.5
v -11.5 4 -3.5
v -12.5 4 -4.5
v -11.5 4 -4.5
v -9.5 4 -4.5
v -4.5 4 -4.5
v 6.5 4 -4.5
v 11.5 4 -4.5
v -9.5 4 -5.5
v -4.5 4 -5.5
v 6.5 4 -5.5
v 11.5 4 -5.5
f -24/2/6 -23/2/6 -18/2/6
f -18/2/6 -23/2/6 -17/2/6
f -22/2/6 -21/2/6 -16/2/6
f -16/2/6 -21/2/6 -15/2/6
f -20/2/6 -19/2/6 -14/2/6
f -14/2/6 -19/2/6 -13/2/6
f -12/2/6 -11/2/6 -10/2/6
f -10/2/6 -11/2/6 -9/2/6
f -8/2/6 -7/2/6 -4/2/6
f -4/2/6 -7/2/6 -3/2/6
f -6/2/6 -5/2/6 -2/2/6
f -2/2/6 -5/2/6 -1/2/6
v -11.5 5 4.5
v -4.5 5 4.5
v 9.5 5 4.5
v 12.5 5 4.5
v -12.5 5 3.5
v -11.5 5 3.5
v -10.5 5 3.5
v -4.5 5 3.5
v 9.5 5 3.5
v 11.5 5 3.5
v -12.5 5 -3.5
v -11.5 5 -3.5
v -10.5 5 -3.5
v -4.5 5 -3.5
v 9.5 5 -3.5
v 11.5 5 -3.5
v -11.5 5 -4.5
v -4.5 5 -4.5
v 9.5 5 -4.5
v 12.5 5 -4.5
f -20/2/6 -19/2/6 -15/2/6
f -15/2/6 -19/2/6 -14/2/6
f -14/2/6 -19/2/6 -13/2/6
f -18/2/6 -17/2/6 -12/2/6
f -12/2/6 -17/2/6 -11/2/6
f -16/2/6 -15/2/6 -10/2/6
f -15/2/6 -14/2/6 -10/2/6
f -10/2/6 -14/2/6 -9/2/6
f -9/2/6 -14/2/6 -8/2/6
f -11/2/6 -17/2/6 -5/2/6
f -8/2/6 -7/2/6 -4/2/6
f -9/2/6 -8/2/6 -4/2/6
f -4/2/6 -7/2/6 -3/2/6
f -6/2/6 -5/2/6 -2/2/6
f -5/2/6 -17/2/6 -1/2/6
f -2/2/6 -5/2/6 -1/2/6
v -10.5 6 3.5
v -5.5 6 3.5
v 9.5 6 3.5
v 11.5 6 3.5
v -10.5 6 -3.5
v -5.5 6 -3.5
v 9.5 6 -3.5
v 11.5 6 -3.5
f -8/2/6 -7/2/6 -4/2/6
f -4/2/6 -7/2/6 -3/2/6
f -6/2/6 -5/2/6 -2/2/6
f -2/2/6 -5/2/6 -1/2/6
v 8.5 8 4.5
v 9.5 8 4.5
v -5.5 8 3.5
v -4.5 8 3.5
v 8.5 8 3.5
v 9.5 8 3.5
v -5.5 8 -3.5
v -4.5 8 -3.5
v 8.5 8 -3.5
v 9.5 8 -3.5
v 8.5 8 -4.5
v 9.5 8 -4.5
f -12/2/6 -11/2/6 -8/2/6
f -8/2/6 -11/2/6 -7/2/6
f -10/3/6 -9/3/6 -6/3/6
f -6/3/6 -9/3/6 -5/3/6
f -4/2/6 -3/2/6 -2/2/6
f -2/2/6 -3/2/6 -1/2/6
v -4.5 9 4.5
v 8.5 9 4.5
v 8.5 9 3.5
v 9.5 9 3.5
v 8.5 9 -3.5
v 9.5 9 -3.5
v -4.5 9 -4.5
v 8.5 9 -4.5
f -8/2/6 -7/2/6 -6/2/6
f -8/2/6 -6/2/6 -4/2/6
f -6/2/6 -5/2/6 -4/2/6
f -4/2/6 -5/2/6 -3/2/6
f -8/2/6 -4/2/6 -2/2/6
f -2/2/6 -4/2/6 -1/2/6
